<svg width="148" height="30" viewBox="0 0 148 30" fill="none" xmlns="http://www.w3.org/2000/svg">
<path d="M9.87529 10.0905L19.4743 19.6895L29.0733 10.0905L19.4743 0.491494L9.87529 10.0905Z" fill="#E94500"/>
<path d="M19.8017 19.8541L29.4007 29.4531L38.9997 19.8541L29.4007 10.2552L19.8017 19.8541Z" fill="#E94500"/>
<path d="M-9.26515e-06 19.9088L9.59897 29.5078L19.1979 19.9088L9.59897 10.3099L-9.26515e-06 19.9088Z" fill="#E94500"/>
<path d="M43.9997 15.6357V0.621094H47.0628V13.0744H54.6612V15.632H43.9997V15.6357Z" fill="#281813"/>
<path d="M56.7912 3.18378V0.496094H59.6871V3.18378H56.7912ZM56.7912 15.6371V4.65587H59.6871V15.6371H56.7912Z" fill="#281813"/>
<path d="M69.8764 19.8188V14.2873C69.4972 14.778 69.0251 15.1646 68.4563 15.4509C67.8913 15.7371 67.2779 15.8784 66.6236 15.8784C65.3746 15.8784 64.3449 15.41 63.5382 14.4732C62.5865 13.3803 62.1107 11.8933 62.1107 10.0197C62.1107 8.25767 62.5568 6.88223 63.4527 5.8934C64.3449 4.90457 65.4564 4.41016 66.7798 4.41016C67.5121 4.41016 68.1441 4.56257 68.6794 4.87111C69.2147 5.17966 69.6868 5.64805 70.1031 6.27258V4.65179H72.7722V19.8151H69.8764V19.8188ZM69.9693 10.0123C69.9693 8.88963 69.7388 8.05693 69.2816 7.51047C68.8206 6.96401 68.2482 6.68893 67.5567 6.68893C66.8504 6.68893 66.2631 6.96773 65.7909 7.52535C65.3188 8.08296 65.0809 8.96398 65.0809 10.1759C65.0809 11.3803 65.3077 12.2465 65.7649 12.7818C66.2222 13.3134 66.7835 13.581 67.4564 13.581C68.1255 13.581 68.7128 13.2836 69.2184 12.6851C69.7165 12.0866 69.9693 11.1944 69.9693 10.0123Z" fill="#281813"/>
<path d="M82.8355 15.6375V13.9944C82.4377 14.5817 81.9098 15.039 81.2593 15.3773C80.6087 15.7118 79.921 15.8791 79.1998 15.8791C78.4638 15.8791 77.8021 15.7155 77.2147 15.3921C76.6311 15.0687 76.2073 14.6152 75.9434 14.0278C75.6832 13.4405 75.5493 12.6338 75.5493 11.6004V4.65625H78.4452V9.69334C78.4452 11.2361 78.4973 12.1803 78.6051 12.526C78.7129 12.8717 78.9062 13.1468 79.1887 13.3513C79.4712 13.5557 79.8318 13.6561 80.2667 13.6561C80.7649 13.6561 81.2072 13.5223 81.6013 13.2472C81.9953 12.9758 82.263 12.6375 82.408 12.236C82.5529 11.8346 82.6236 10.8494 82.6236 9.2807V4.65625H85.5194V15.6375H82.8355Z" fill="#281813"/>
<path d="M87.8578 9.98998C87.8578 9.02718 88.0957 8.09411 88.5715 7.19078C89.0474 6.28745 89.7202 5.59973 90.5938 5.1239C91.4674 4.64807 92.4414 4.41016 93.5157 4.41016C95.1774 4.41016 96.5379 4.94918 97.6011 6.02723C98.6643 7.10528 99.1922 8.46585 99.1922 10.1127C99.1922 11.7706 98.6569 13.1461 97.5825 14.239C96.5119 15.3319 95.1625 15.8746 93.5343 15.8746C92.5269 15.8746 91.5678 15.6479 90.6533 15.1944C89.7388 14.7408 89.0436 14.0754 88.5678 13.1944C88.092 12.3134 87.8578 11.2502 87.8578 9.98998ZM90.828 10.1461C90.828 11.2316 91.0882 12.0643 91.6049 12.6405C92.1217 13.2167 92.7611 13.5067 93.5231 13.5067C94.2815 13.5067 94.9209 13.2167 95.4339 12.6405C95.9469 12.0643 96.2071 11.2242 96.2071 10.1238C96.2071 9.0532 95.9506 8.22793 95.4339 7.64802C94.9209 7.07182 94.2815 6.78186 93.5231 6.78186C92.7648 6.78186 92.1254 7.07182 91.6049 7.64802C91.0845 8.22793 90.828 9.06063 90.828 10.1461Z" fill="#281813"/>
<path d="M104.233 15.6369H101.337V4.65569H104.025V6.21701C104.486 5.48096 104.898 4.99398 105.27 4.7635C105.638 4.53302 106.054 4.41406 106.523 4.41406C107.185 4.41406 107.82 4.59622 108.434 4.96052L107.527 7.48465C107.04 7.16867 106.586 7.00882 106.166 7.00882C105.761 7.00882 105.419 7.12034 105.136 7.34338C104.854 7.56643 104.634 7.97163 104.471 8.55898C104.311 9.14633 104.229 10.3731 104.229 12.2429V15.6369H104.233Z" fill="#281813"/>
<path d="M109.723 0.492188H115.772C116.969 0.492188 117.861 0.540514 118.448 0.640884C119.035 0.741254 119.563 0.949429 120.028 1.26541C120.493 1.58139 120.879 2.00145 121.188 2.52933C121.496 3.0572 121.652 3.64455 121.652 4.29881C121.652 5.00884 121.463 5.65567 121.08 6.25045C120.697 6.84152 120.184 7.28389 119.53 7.58128C120.452 7.84894 121.158 8.3099 121.656 8.95672C122.151 9.60355 122.4 10.3656 122.4 11.2429C122.4 11.9344 122.24 12.6035 121.92 13.254C121.6 13.9046 121.162 14.425 120.608 14.8154C120.054 15.2057 119.37 15.4436 118.56 15.5328C118.05 15.5886 116.82 15.622 114.872 15.6369H109.72V0.492188H109.723ZM112.783 3.01259V6.50324H114.783C115.972 6.50324 116.712 6.48465 117.002 6.45119C117.526 6.388 117.935 6.20956 118.236 5.91217C118.534 5.61478 118.686 5.22073 118.686 4.73375C118.686 4.26536 118.556 3.88618 118.299 3.59622C118.043 3.30626 117.656 3.12783 117.151 3.06463C116.85 3.03118 115.98 3.01259 114.541 3.01259H112.783ZM112.783 9.02736V13.0793H115.612C116.712 13.0793 117.411 13.0496 117.708 12.9864C118.162 12.9046 118.534 12.7039 118.816 12.3805C119.102 12.0608 119.244 11.6295 119.244 11.0942C119.244 10.6407 119.132 10.2541 118.913 9.93812C118.693 9.62214 118.374 9.39166 117.957 9.24668C117.541 9.1017 116.638 9.03107 115.247 9.03107H112.783V9.02736Z" fill="#281813"/>
<path d="M124.288 9.98998C124.288 9.02718 124.526 8.09411 125.002 7.19078C125.478 6.28745 126.151 5.59973 127.024 5.1239C127.898 4.64807 128.872 4.41016 129.946 4.41016C131.608 4.41016 132.969 4.94918 134.032 6.02723C135.095 7.10528 135.623 8.46585 135.623 10.1127C135.623 11.7706 135.087 13.1461 134.013 14.239C132.943 15.3319 131.593 15.8746 129.965 15.8746C128.957 15.8746 127.998 15.6479 127.084 15.1944C126.169 14.7408 125.474 14.0754 124.998 13.1944C124.523 12.3134 124.288 11.2502 124.288 9.98998ZM127.259 10.1461C127.259 11.2316 127.519 12.0643 128.036 12.6405C128.552 13.2167 129.192 13.5067 129.954 13.5067C130.712 13.5067 131.351 13.2167 131.865 12.6405C132.378 12.0643 132.638 11.2242 132.638 10.1238C132.638 9.0532 132.381 8.22793 131.865 7.64802C131.351 7.07182 130.712 6.78186 129.954 6.78186C129.195 6.78186 128.556 7.07182 128.036 7.64802C127.519 8.22793 127.259 9.06063 127.259 10.1461Z" fill="#281813"/>
<path d="M136.492 15.6377L140.444 9.98349L136.663 4.66016H140.195L142.139 7.67869L144.191 4.66016H147.589L143.871 9.86081L147.923 15.6414H144.37L142.135 12.24L139.89 15.6414H136.492V15.6377Z" fill="#281813"/>
<path d="M43.9997 22.8672H47.6763V23.7135H43.9997V22.8672ZM45.4009 23.2824H46.2791V27.941H45.4009V23.2824Z" fill="#281813"/>
<path d="M48.0714 22.8672H48.9536V27.941H48.0714V22.8672ZM50.1951 25.7454C50.1951 25.5458 50.1392 25.3901 50.0274 25.2784C49.9157 25.1666 49.76 25.1107 49.5564 25.1107C49.3648 25.1107 49.2131 25.1626 49.1093 25.2704C49.0015 25.3782 48.9496 25.5259 48.9496 25.7135L48.8777 24.943C48.9855 24.7195 49.1212 24.5518 49.2809 24.436C49.4406 24.3203 49.6362 24.2644 49.8638 24.2644C50.247 24.2644 50.5464 24.3921 50.758 24.6516C50.9695 24.9071 51.0733 25.2704 51.0733 25.7414V27.941H50.1911V25.7454H50.1951Z" fill="#281813"/>
<path d="M52.7101 27.8006C52.4665 27.6728 52.2789 27.4892 52.1512 27.2457C52.0234 27.0022 51.9596 26.7108 51.9596 26.3675V25.9603C51.9596 25.601 52.0194 25.2976 52.1432 25.0421C52.2669 24.7866 52.4466 24.595 52.6821 24.4633C52.9176 24.3315 53.2011 24.2637 53.5324 24.2637C53.8438 24.2637 54.1112 24.3435 54.3348 24.4992C54.5584 24.6549 54.726 24.8824 54.8418 25.1778C54.9575 25.4732 55.0174 25.8325 55.0174 26.2517V26.4872H52.5504V25.8645H54.2031L54.1951 25.8086C54.1711 25.573 54.0993 25.3894 53.9875 25.2577C53.8757 25.1299 53.724 25.0621 53.5324 25.0621C53.2889 25.0621 53.1013 25.1379 52.9695 25.2856C52.8378 25.4373 52.7699 25.6449 52.7699 25.9204V26.3794C52.7699 26.6429 52.8418 26.8465 52.9895 26.9902C53.1372 27.1339 53.3368 27.2058 53.6003 27.2058C53.732 27.2058 53.8637 27.1818 53.9955 27.1299C54.1272 27.078 54.243 27.0102 54.3508 26.9223L54.9256 27.4493C54.738 27.6209 54.5304 27.7527 54.2989 27.8485C54.0673 27.9443 53.8358 27.9882 53.6003 27.9882C53.249 27.9922 52.9536 27.9283 52.7101 27.8006Z" fill="#281813"/>
<path d="M59.9875 22.8672H60.6701L61.6602 26.4281L62.3867 22.8672H63.2969L62.1073 27.941H61.261L60.3508 24.3961L59.3967 27.941H58.5504L57.3608 22.8672H58.271L58.9975 26.4281L59.9875 22.8672Z" fill="#281813"/>
<path d="M63.828 22.8672H64.7062V23.7494H63.828V22.8672ZM63.828 24.3163H64.7062V27.937H63.828V24.3163Z" fill="#281813"/>
<path d="M65.6562 24.3156H66.5384V27.9363H65.6562V24.3156ZM67.7799 25.7447C67.7799 25.5451 67.724 25.3894 67.6123 25.2776C67.5005 25.1659 67.3448 25.11 67.1412 25.11C66.9496 25.11 66.7979 25.1619 66.6941 25.2697C66.5863 25.3774 66.5344 25.5251 66.5344 25.7168L66.4626 24.9463C66.5704 24.7188 66.7061 24.5511 66.8658 24.4353C67.0254 24.3196 67.2211 24.2637 67.4486 24.2637C67.8318 24.2637 68.1312 24.3914 68.3428 24.6509C68.5544 24.9064 68.6622 25.2697 68.6622 25.7407V27.9403H67.7799V25.7447Z" fill="#281813"/>
<path d="M70.2991 27.8006C70.0556 27.6728 69.868 27.4892 69.7402 27.2457C69.6125 27.0022 69.5486 26.7108 69.5486 26.3675V25.9603C69.5486 25.601 69.6085 25.2976 69.7322 25.0421C69.856 24.7866 70.0356 24.595 70.2712 24.4633C70.5067 24.3315 70.7901 24.2637 71.1215 24.2637C71.4328 24.2637 71.7003 24.3435 71.9238 24.4992C72.1474 24.6549 72.3151 24.8824 72.4308 25.1778C72.5466 25.4732 72.6065 25.8325 72.6065 26.2517V26.4872H70.1394V25.8645H71.7921L71.7841 25.8086C71.7602 25.573 71.6883 25.3894 71.5765 25.2577C71.4648 25.1259 71.3131 25.0621 71.1215 25.0621C70.878 25.0621 70.6903 25.1379 70.5586 25.2856C70.4229 25.4373 70.359 25.6449 70.359 25.9204V26.3794C70.359 26.6429 70.4308 26.8465 70.5785 26.9902C70.7263 27.1339 70.9258 27.2058 71.1893 27.2058C71.3211 27.2058 71.4528 27.1818 71.5845 27.1299C71.7163 27.078 71.832 27.0102 71.9398 26.9223L72.5147 27.4493C72.327 27.6209 72.1195 27.7527 71.8879 27.8485C71.6564 27.9443 71.4249 27.9882 71.1893 27.9882C70.834 27.9922 70.5426 27.9283 70.2991 27.8006Z" fill="#281813"/>
<path d="M76.8976 22.8672H77.5044L79.4245 27.941H78.4744L77.201 24.2883L75.9275 27.941H74.9774L76.8976 22.8672ZM75.8916 26.1885H78.5622V27.0348H75.8916V26.1885Z" fill="#281813"/>
<path d="M80.0274 24.3156H80.9096V27.9363H80.0274V24.3156ZM82.1511 25.7447C82.1511 25.5451 82.0952 25.3894 81.9835 25.2776C81.8717 25.1659 81.716 25.11 81.5124 25.11C81.3208 25.11 81.1691 25.1619 81.0653 25.2697C80.9575 25.3774 80.9056 25.5251 80.9056 25.7168L80.8338 24.9463C80.9415 24.7188 81.0773 24.5511 81.237 24.4353C81.3966 24.3196 81.5922 24.2637 81.8198 24.2637C82.203 24.2637 82.5024 24.3914 82.714 24.6509C82.9256 24.9064 83.0334 25.2697 83.0334 25.7407V27.9403H82.1511V25.7447Z" fill="#281813"/>
<path d="M84.4785 27.8133C84.2948 27.6935 84.1551 27.5179 84.0593 27.2863C83.9635 27.0548 83.9156 26.7793 83.9156 26.456V25.8093C83.9156 25.4819 83.9635 25.2025 84.0593 24.971C84.1551 24.7394 84.2948 24.5598 84.4745 24.44C84.6581 24.3203 84.8777 24.2604 85.1331 24.2604C85.3327 24.2604 85.5164 24.3163 85.68 24.4321C85.8437 24.5478 85.9794 24.7075 86.0792 24.9191L86.0074 25.7055C86.0074 25.5738 85.9834 25.462 85.9395 25.3662C85.8916 25.2744 85.8278 25.2025 85.7399 25.1546C85.6521 25.1067 85.5483 25.0828 85.4206 25.0828C85.225 25.0828 85.0733 25.1466 84.9655 25.2784C84.8577 25.4061 84.8018 25.5897 84.8018 25.8253V26.464C84.8018 26.6955 84.8577 26.8712 84.9655 26.9989C85.0733 27.1227 85.225 27.1865 85.4206 27.1865C85.5443 27.1865 85.6521 27.1626 85.7399 27.1147C85.8278 27.0668 85.8956 26.9949 85.9395 26.9031C85.9874 26.8113 86.0074 26.6995 86.0074 26.5718L86.0553 27.3821C85.9794 27.5738 85.8677 27.7294 85.708 27.8412C85.5483 27.953 85.3647 28.0089 85.1411 28.0089C84.8817 27.9969 84.6621 27.937 84.4785 27.8133ZM86.0034 22.8672H86.8856V27.941H86.0034V22.8672Z" fill="#281813"/>
<path d="M90.7302 27.9201C90.5026 27.8722 90.287 27.8004 90.0914 27.7086C89.8918 27.6128 89.7122 27.501 89.5485 27.3653L89.9916 26.6507C90.1872 26.8144 90.4108 26.9381 90.6583 27.0259C90.9058 27.1138 91.1653 27.1537 91.4367 27.1537C91.7641 27.1537 92.0196 27.0978 92.1992 26.982C92.3789 26.8662 92.4707 26.7066 92.4707 26.495V26.491C92.4707 26.3433 92.4308 26.2275 92.3469 26.1397C92.2671 26.0519 92.1593 25.988 92.0276 25.9481C91.8958 25.9082 91.7322 25.8682 91.5286 25.8363C91.5206 25.8323 91.5126 25.8323 91.5086 25.8323C91.5006 25.8323 91.4926 25.8323 91.4886 25.8283L91.4208 25.8164C91.0815 25.7645 90.802 25.6966 90.5825 25.6207C90.3629 25.5409 90.1753 25.4052 90.0196 25.2056C89.8639 25.006 89.788 24.7225 89.788 24.3593V24.3553C89.788 24.0319 89.8599 23.7565 90.0076 23.5249C90.1553 23.2934 90.3629 23.1178 90.6383 22.998C90.9138 22.8782 91.2491 22.8184 91.6363 22.8184C91.816 22.8184 91.9996 22.8383 92.1872 22.8782C92.3709 22.9182 92.5545 22.978 92.7341 23.0579C92.9138 23.1377 93.0854 23.2335 93.2491 23.3493L92.8459 24.0838C92.6503 23.9481 92.4507 23.8403 92.2431 23.7685C92.0355 23.6966 91.8359 23.6567 91.6403 23.6567C91.333 23.6567 91.0894 23.7126 90.9218 23.8203C90.7501 23.9281 90.6663 24.0838 90.6663 24.2794V24.2834C90.6663 24.4391 90.7102 24.5629 90.798 24.6507C90.8858 24.7385 90.9976 24.8064 91.1254 24.8463C91.2571 24.8862 91.4367 24.9341 91.6723 24.978C91.6803 24.982 91.6922 24.982 91.7002 24.982C91.7082 24.982 91.7202 24.986 91.7282 24.986C91.7401 24.99 91.7561 24.99 91.7681 24.994C91.7801 24.998 91.796 24.998 91.808 25.002C92.1234 25.0659 92.3868 25.1417 92.5984 25.2295C92.81 25.3174 92.9856 25.4611 93.1294 25.6607C93.2731 25.8603 93.3449 26.1277 93.3449 26.4671V26.475C93.3449 26.7944 93.2691 27.0658 93.1214 27.2934C92.9697 27.5209 92.7541 27.6966 92.4667 27.8124C92.1793 27.9321 91.8359 27.992 91.4327 27.992C91.1932 27.992 90.9577 27.968 90.7302 27.9201Z" fill="#281813"/>
<path d="M94.1909 24.3157H95.0732V29.4095H94.1909V24.3157ZM95.3726 27.8287C95.2169 27.7209 95.0971 27.5692 95.0213 27.3696L95.0692 26.5632C95.0692 26.695 95.0931 26.8028 95.1371 26.8946C95.185 26.9864 95.2488 27.0543 95.3367 27.1022C95.4245 27.1501 95.5323 27.174 95.656 27.174C95.8516 27.174 96.0033 27.1101 96.1111 26.9864C96.2189 26.8626 96.2748 26.683 96.2748 26.4515V25.8127C96.2748 25.5772 96.2189 25.3976 96.1111 25.2658C96.0033 25.1381 95.8516 25.0702 95.656 25.0702C95.5323 25.0702 95.4245 25.0942 95.3367 25.1421C95.2488 25.19 95.181 25.2618 95.1371 25.3537C95.0891 25.4455 95.0692 25.5573 95.0692 25.689L94.9973 24.9185C95.0971 24.707 95.2289 24.5433 95.3965 24.4275C95.5602 24.3118 95.7438 24.2559 95.9434 24.2559C96.1989 24.2559 96.4185 24.3157 96.6021 24.4355C96.7858 24.5553 96.9255 24.7349 97.0173 24.9664C97.1131 25.198 97.161 25.4774 97.161 25.8048V26.4475C97.161 26.7708 97.1131 27.0463 97.0173 27.2778C96.9215 27.5054 96.7818 27.681 96.5981 27.8048C96.4145 27.9245 96.1949 27.9844 95.9355 27.9844C95.7159 27.9924 95.5323 27.9365 95.3726 27.8287Z" fill="#281813"/>
<path d="M98.0435 22.8672H98.9218V23.7494H98.0435V22.8672ZM98.0435 24.3163H98.9218V27.937H98.0435V24.3163Z" fill="#281813"/>
<path d="M99.8718 24.3155H100.802V27.9362H99.8718V24.3155ZM101.704 25.1538C101.628 25.1259 101.54 25.1139 101.441 25.1139C101.237 25.1139 101.081 25.1778 100.97 25.3015C100.858 25.4253 100.802 25.5969 100.802 25.8205L100.73 24.9502C100.834 24.7346 100.966 24.567 101.129 24.4472C101.293 24.3275 101.477 24.2676 101.672 24.2676C101.828 24.2676 101.968 24.2915 102.095 24.3394C102.219 24.3873 102.331 24.4592 102.423 24.551L101.892 25.2855C101.844 25.2257 101.78 25.1817 101.704 25.1538Z" fill="#281813"/>
<path d="M102.886 22.8672H103.764V23.7494H102.886V22.8672ZM102.886 24.3163H103.764V27.937H102.886V24.3163Z" fill="#281813"/>
<path d="M104.435 24.3156H106.167V25.0781H104.435V24.3156ZM105.025 27.7128C104.882 27.5531 104.81 27.3136 104.81 26.9942V23.2617H105.692V26.8306C105.692 26.9184 105.708 26.9863 105.744 27.0342C105.78 27.0821 105.832 27.106 105.896 27.106H106.163V27.9523H105.704C105.397 27.9563 105.169 27.8765 105.025 27.7128Z" fill="#281813"/>
<path d="M107.776 27.9322C107.576 27.8923 107.389 27.8364 107.217 27.7566C107.045 27.6768 106.886 27.5849 106.75 27.4732L107.289 26.8025C107.469 26.9223 107.652 27.0181 107.844 27.0819C108.035 27.1458 108.219 27.1778 108.399 27.1778C108.642 27.1778 108.826 27.1458 108.954 27.0859C109.081 27.0261 109.145 26.9382 109.145 26.8225C109.145 26.7306 109.113 26.6628 109.053 26.6149C108.993 26.567 108.918 26.535 108.822 26.5191C108.73 26.4991 108.598 26.4831 108.431 26.4712C108.395 26.4672 108.359 26.4632 108.323 26.4592C108.287 26.4552 108.251 26.4512 108.215 26.4472C108.207 26.4472 108.195 26.4472 108.187 26.4472C108.175 26.4472 108.167 26.4472 108.159 26.4472C107.9 26.4153 107.692 26.3754 107.528 26.3235C107.365 26.2716 107.229 26.1758 107.117 26.032C107.005 25.8883 106.95 25.6808 106.95 25.4133C106.95 25.1658 107.005 24.9582 107.117 24.7865C107.229 24.6149 107.393 24.4871 107.612 24.3993C107.828 24.3115 108.095 24.2676 108.407 24.2676C108.594 24.2676 108.774 24.2875 108.954 24.3235C109.133 24.3594 109.305 24.4113 109.469 24.4831C109.632 24.551 109.784 24.6388 109.928 24.7386L109.401 25.3814C109.237 25.2855 109.065 25.2097 108.894 25.1578C108.722 25.1059 108.554 25.082 108.395 25.082C108.187 25.082 108.027 25.1099 107.916 25.1658C107.804 25.2217 107.748 25.3015 107.748 25.4053C107.748 25.4772 107.78 25.533 107.84 25.573C107.9 25.6129 107.976 25.6368 108.067 25.6528C108.159 25.6688 108.291 25.6847 108.463 25.7007C108.482 25.7047 108.498 25.7047 108.518 25.7087C108.538 25.7127 108.558 25.7127 108.574 25.7167C108.582 25.7167 108.594 25.7167 108.602 25.7167C108.61 25.7167 108.622 25.7167 108.63 25.7207C108.906 25.7486 109.129 25.7885 109.309 25.8404C109.484 25.8923 109.636 25.9921 109.76 26.1478C109.884 26.2995 109.944 26.5231 109.944 26.8185C109.944 27.074 109.884 27.2855 109.764 27.4652C109.644 27.6408 109.473 27.7766 109.241 27.8684C109.009 27.9602 108.73 28.0081 108.399 28.0081C108.183 27.9921 107.976 27.9722 107.776 27.9322Z" fill="#281813"/>
<path d="M114.846 22.8672H115.528L116.518 26.4281L117.245 22.8672H118.155L116.965 27.941H116.119L115.209 24.3961L114.255 27.941H113.409L112.219 22.8672H113.129L113.856 26.4281L114.846 22.8672Z" fill="#281813"/>
<path d="M118.85 27.7128C118.65 27.5291 118.546 27.2457 118.546 26.8704C118.546 26.5112 118.654 26.2437 118.866 26.0641C119.077 25.8844 119.397 25.7966 119.82 25.7966H120.766L120.814 26.4752H119.824C119.668 26.4752 119.552 26.5072 119.473 26.571C119.393 26.6349 119.353 26.7347 119.353 26.8665C119.353 27.0022 119.405 27.106 119.504 27.1738C119.604 27.2417 119.756 27.2736 119.96 27.2736C120.219 27.2736 120.415 27.2457 120.542 27.1858C120.67 27.1259 120.734 27.0381 120.734 26.9144L120.806 27.4333C120.774 27.5531 120.71 27.6569 120.61 27.7367C120.51 27.8205 120.383 27.8804 120.235 27.9203C120.087 27.9603 119.928 27.9802 119.76 27.9802C119.353 27.9922 119.049 27.9004 118.85 27.7128ZM120.73 25.6449C120.73 25.4573 120.67 25.3096 120.554 25.2058C120.439 25.102 120.271 25.0501 120.059 25.0501C119.924 25.0501 119.784 25.074 119.652 25.118C119.516 25.1619 119.397 25.2257 119.297 25.3016L118.726 24.7906C118.87 24.6269 119.057 24.4952 119.289 24.4034C119.524 24.3116 119.78 24.2637 120.063 24.2637C120.375 24.2637 120.642 24.3156 120.862 24.4233C121.081 24.5311 121.249 24.6828 121.365 24.8824C121.48 25.082 121.54 25.3255 121.54 25.609V27.9363H120.73V25.6449Z" fill="#281813"/>
<path d="M122.522 24.3155H123.452V27.9362H122.522V24.3155ZM124.359 25.1538C124.283 25.1259 124.195 25.1139 124.095 25.1139C123.892 25.1139 123.736 25.1778 123.624 25.3015C123.512 25.4253 123.456 25.5969 123.456 25.8205L123.385 24.9502C123.488 24.7346 123.62 24.567 123.788 24.4472C123.951 24.3275 124.135 24.2676 124.331 24.2676C124.486 24.2676 124.626 24.2915 124.754 24.3394C124.878 24.3873 124.989 24.4592 125.081 24.551L124.55 25.2855C124.498 25.2257 124.434 25.1817 124.359 25.1538Z" fill="#281813"/>
<path d="M126.223 27.8006C125.98 27.6728 125.792 27.4892 125.664 27.2457C125.536 27.0022 125.469 26.7108 125.469 26.3675V25.9603C125.469 25.601 125.528 25.2976 125.652 25.0421C125.776 24.7866 125.956 24.595 126.191 24.4633C126.427 24.3315 126.71 24.2637 127.041 24.2637C127.353 24.2637 127.62 24.3435 127.844 24.4992C128.067 24.6549 128.235 24.8824 128.351 25.1778C128.467 25.4732 128.526 25.8325 128.526 26.2517V26.4872H126.059V25.8645H127.712L127.704 25.8086C127.68 25.573 127.608 25.3894 127.497 25.2577C127.385 25.1259 127.233 25.0621 127.041 25.0621C126.798 25.0621 126.61 25.1379 126.479 25.2856C126.347 25.4373 126.279 25.6449 126.279 25.9204V26.3794C126.279 26.6429 126.351 26.8465 126.499 26.9902C126.642 27.1339 126.846 27.2058 127.105 27.2058C127.237 27.2058 127.369 27.1818 127.501 27.1299C127.632 27.078 127.748 27.0102 127.856 26.9223L128.431 27.4493C128.243 27.6209 128.035 27.7527 127.804 27.8485C127.572 27.9443 127.341 27.9882 127.105 27.9882C126.762 27.9922 126.467 27.9283 126.223 27.8006Z" fill="#281813"/>
<path d="M129.405 22.8672H130.287V27.941H129.405V22.8672ZM131.528 25.7454C131.528 25.5458 131.473 25.3901 131.361 25.2784C131.249 25.1666 131.093 25.1107 130.89 25.1107C130.698 25.1107 130.546 25.1626 130.443 25.2704C130.335 25.3782 130.283 25.5259 130.283 25.7135L130.211 24.943C130.319 24.7195 130.455 24.5518 130.614 24.436C130.774 24.3203 130.97 24.2644 131.197 24.2644C131.58 24.2644 131.88 24.3921 132.091 24.6516C132.303 24.9071 132.411 25.2704 132.411 25.7414V27.941H131.528V25.7454Z" fill="#281813"/>
<path d="M133.999 27.8047C133.768 27.6809 133.592 27.5013 133.473 27.2658C133.353 27.0302 133.293 26.7468 133.293 26.4115V25.8206C133.293 25.4933 133.353 25.2099 133.473 24.9783C133.592 24.7428 133.768 24.5672 133.999 24.4434C134.231 24.3196 134.506 24.2598 134.834 24.2598C135.161 24.2598 135.437 24.3196 135.668 24.4434C135.9 24.5672 136.075 24.7428 136.195 24.9783C136.315 25.2139 136.375 25.4933 136.375 25.8206V26.4194C136.375 26.7508 136.315 27.0302 136.195 27.2658C136.075 27.5013 135.9 27.6769 135.668 27.8007C135.437 27.9244 135.161 27.9843 134.834 27.9843C134.51 27.9923 134.231 27.9284 133.999 27.8047ZM135.321 26.9544C135.437 26.8306 135.493 26.651 135.493 26.4234V25.8246C135.493 25.5971 135.437 25.4254 135.321 25.2977C135.205 25.1739 135.041 25.1101 134.83 25.1101C134.622 25.1101 134.463 25.1739 134.347 25.2977C134.231 25.4214 134.175 25.5971 134.175 25.8246V26.4234C134.175 26.651 134.231 26.8266 134.347 26.9544C134.463 27.0781 134.622 27.142 134.83 27.142C135.041 27.142 135.205 27.0821 135.321 26.9544Z" fill="#281813"/>
<path d="M138.175 26.518C138.175 26.7176 138.231 26.8693 138.338 26.9771C138.446 27.0849 138.598 27.1408 138.794 27.1408C138.989 27.1408 139.141 27.0889 139.245 26.9811C139.352 26.8733 139.404 26.7216 139.404 26.526L139.452 27.3085C139.384 27.5001 139.269 27.6637 139.105 27.7955C138.945 27.9272 138.75 27.9911 138.518 27.9911C138.127 27.9911 137.824 27.8633 137.612 27.6118C137.396 27.3603 137.293 27.0011 137.293 26.542V24.3145H138.175V26.518ZM139.404 24.3145H140.283V27.9352H139.404V24.3145Z" fill="#281813"/>
<path d="M141.995 27.9322C141.796 27.8923 141.608 27.8364 141.436 27.7566C141.265 27.6768 141.105 27.5849 140.969 27.4732L141.508 26.8025C141.688 26.9223 141.872 27.0181 142.063 27.0819C142.255 27.1458 142.438 27.1778 142.618 27.1778C142.862 27.1778 143.045 27.1458 143.173 27.0859C143.301 27.0261 143.365 26.9382 143.365 26.8225C143.365 26.7306 143.333 26.6628 143.273 26.6149C143.213 26.567 143.137 26.535 143.041 26.5191C142.949 26.4991 142.818 26.4831 142.65 26.4712C142.614 26.4672 142.578 26.4632 142.542 26.4592C142.506 26.4552 142.47 26.4512 142.43 26.4472C142.422 26.4472 142.41 26.4472 142.403 26.4472C142.391 26.4472 142.383 26.4472 142.375 26.4472C142.115 26.4153 141.907 26.3754 141.744 26.3235C141.58 26.2716 141.444 26.1758 141.333 26.032C141.221 25.8883 141.165 25.6808 141.165 25.4133C141.165 25.1658 141.221 24.9582 141.333 24.7865C141.444 24.6149 141.608 24.4871 141.828 24.3993C142.043 24.3115 142.311 24.2676 142.622 24.2676C142.81 24.2676 142.989 24.2875 143.169 24.3235C143.349 24.3594 143.52 24.4113 143.684 24.4831C143.848 24.551 143.999 24.6388 144.143 24.7386L143.616 25.3814C143.452 25.2855 143.281 25.2097 143.109 25.1578C142.937 25.1059 142.77 25.082 142.61 25.082C142.402 25.082 142.243 25.1099 142.131 25.1658C142.019 25.2217 141.963 25.3015 141.963 25.4053C141.963 25.4772 141.995 25.533 142.055 25.573C142.115 25.6129 142.191 25.6368 142.283 25.6528C142.375 25.6688 142.506 25.6847 142.678 25.7007C142.698 25.7047 142.714 25.7047 142.734 25.7087C142.754 25.7127 142.774 25.7127 142.79 25.7167C142.798 25.7167 142.81 25.7167 142.818 25.7167C142.826 25.7167 142.838 25.7167 142.846 25.7207C143.121 25.7486 143.345 25.7885 143.524 25.8404C143.7 25.8923 143.852 25.9921 143.975 26.1478C144.099 26.2995 144.159 26.5231 144.159 26.8185C144.159 27.074 144.099 27.2855 143.979 27.4652C143.86 27.6408 143.688 27.7766 143.456 27.8684C143.225 27.9602 142.945 28.0081 142.614 28.0081C142.402 27.9921 142.195 27.9722 141.995 27.9322Z" fill="#281813"/>
<path d="M145.62 27.8006C145.377 27.6728 145.189 27.4892 145.061 27.2457C144.933 27.0022 144.866 26.7108 144.866 26.3675V25.9603C144.866 25.601 144.925 25.2976 145.049 25.0421C145.173 24.7866 145.353 24.595 145.588 24.4633C145.824 24.3315 146.107 24.2637 146.438 24.2637C146.75 24.2637 147.017 24.3435 147.241 24.4992C147.464 24.6549 147.632 24.8824 147.748 25.1778C147.864 25.4732 147.923 25.8325 147.923 26.2517V26.4872H145.456V25.8645H147.109L147.101 25.8086C147.077 25.573 147.005 25.3894 146.894 25.2577C146.782 25.1259 146.63 25.0621 146.438 25.0621C146.195 25.0621 146.007 25.1379 145.876 25.2856C145.744 25.4373 145.676 25.6449 145.676 25.9204V26.3794C145.676 26.6429 145.748 26.8465 145.896 26.9902C146.039 27.1339 146.243 27.2058 146.502 27.2058C146.634 27.2058 146.766 27.1818 146.898 27.1299C147.029 27.078 147.145 27.0102 147.253 26.9223L147.828 27.4493C147.64 27.6209 147.432 27.7527 147.201 27.8485C146.969 27.9443 146.738 27.9882 146.502 27.9882C146.159 27.9922 145.864 27.9283 145.62 27.8006Z" fill="#281813"/>
</svg>
